{
	"asset":{
		"generator":"Khronos glTF Blender I/O v4.1.62",
		"version":"2.0"
	},
	"scene":0,
	"scenes":[
		{
			"name":"Scene",
			"nodes":[
				27
			]
		}
	],
	"nodes":[
		{
			"name":"arm_left_hand_end",
			"rotation":[
				6.798654794692993e-08,
				7.450580596923828e-09,
				-5.592592060565948e-07,
				1
			],
			"translation":[
				6.854534149169922e-07,
				1.434505820274353,
				-2.384185791015625e-07
			]
		},
		{
			"children":[
				0
			],
			"name":"arm_left_hand",
			"rotation":[
				-4.3772163849098433e-07,
				-8.922070833250473e-07,
				-1.5133993258586997e-07,
				1
			],
			"scale":[
				0.9999999403953552,
				0.9999999403953552,
				1
			],
			"translation":[
				-7.152557373046875e-07,
				2.8690154552459717,
				1.1920928955078125e-07
			]
		},
		{
			"children":[
				1
			],
			"name":"arm_left_bot",
			"rotation":[
				0.04185350239276886,
				0.06178430840373039,
				-0.0831020399928093,
				0.9937429428100586
			],
			"scale":[
				1,
				1,
				0.9999999403953552
			],
			"translation":[
				-5.960464477539062e-07,
				1.98511803150177,
				1.430511474609375e-06
			]
		},
		{
			"children":[
				2
			],
			"name":"arm_left_top",
			"rotation":[
				0.013071303255856037,
				0.018830453976988792,
				-0.03220093622803688,
				0.9992185235023499
			],
			"scale":[
				1,
				0.9999999403953552,
				0.9999999403953552
			],
			"translation":[
				7.748603820800781e-07,
				1.844373106956482,
				-2.086162567138672e-07
			]
		},
		{
			"children":[
				3
			],
			"name":"shoulder_left",
			"rotation":[
				0.016132527962327003,
				2.791448405758956e-09,
				-0.8340854048728943,
				0.5513994097709656
			],
			"scale":[
				0.9999998211860657,
				0.9999999403953552,
				1
			],
			"translation":[
				10.939847946166992,
				3.2588675022125244,
				0.5326166749000549
			]
		},
		{
			"name":"arm_right_hand_end",
			"rotation":[
				1.1175870895385742e-07,
				-5.234032300904801e-07,
				-1.2328382581472397e-06,
				1
			],
			"scale":[
				1.0000001192092896,
				0.9999998807907104,
				1.0000001192092896
			],
			"translation":[
				5.960464477539063e-08,
				1.536612868309021,
				4.76837158203125e-07
			]
		},
		{
			"children":[
				5
			],
			"name":"arm_right_hand",
			"rotation":[
				7.543712854385376e-08,
				4.842877388000488e-08,
				9.424983886674454e-07,
				1
			],
			"scale":[
				1,
				1.0000001192092896,
				1
			],
			"translation":[
				-1.6093254089355469e-06,
				3.073227882385254,
				-5.960464477539062e-07
			]
		},
		{
			"children":[
				6
			],
			"name":"arm_right_bot",
			"rotation":[
				0.042886991053819656,
				-0.07214681804180145,
				0.07818757742643356,
				0.9933993816375732
			],
			"translation":[
				0,
				2.124258518218994,
				1.043081283569336e-07
			]
		},
		{
			"children":[
				7
			],
			"name":"arm_right_top",
			"rotation":[
				0.01639970764517784,
				-0.02729671820998192,
				0.03858579695224762,
				0.9987477660179138
			],
			"translation":[
				2.086162567138672e-07,
				1.97564697265625,
				-2.384185791015625e-07
			]
		},
		{
			"children":[
				8
			],
			"name":"shoulder_right",
			"rotation":[
				-0.015146964229643345,
				1.0989087417812016e-09,
				0.8474976420402527,
				0.5305830836296082
			],
			"scale":[
				0.9999999403953552,
				0.9999999403953552,
				1
			],
			"translation":[
				-10.80560302734375,
				3.460401773452759,
				0.4155579209327698
			]
		},
		{
			"name":"head_end",
			"rotation":[
				-8.094774273104122e-08,
				1.138200522872966e-21,
				1.264808480172519e-09,
				1
			],
			"translation":[
				-6.8531278429873055e-09,
				5.890679359436035,
				-7.43005045933387e-07
			]
		},
		{
			"children":[
				10
			],
			"name":"head",
			"rotation":[
				8.094774273104122e-08,
				-1.138200522872966e-21,
				-1.264808480172519e-09,
				1
			],
			"translation":[
				0,
				11.78135871887207,
				2.045355813606875e-07
			]
		},
		{
			"children":[
				11
			],
			"name":"neck",
			"rotation":[
				0,
				7.113753267956038e-22,
				7.756821851501172e-10,
				1
			],
			"translation":[
				-1.5728028657235882e-08,
				6.03447151184082,
				-6.849322176094574e-07
			]
		},
		{
			"children":[
				4,
				9,
				12
			],
			"name":"body_top2",
			"rotation":[
				0,
				-2.612597054270103e-21,
				-2.8765563264698812e-09,
				1
			],
			"translation":[
				-3.869796483257915e-09,
				3.546419382095337,
				-1.8684784208744531e-07
			]
		},
		{
			"children":[
				13
			],
			"name":"body_top1",
			"rotation":[
				0,
				1.9082790159721256e-21,
				2.100873919275159e-09,
				1
			],
			"translation":[
				0,
				4.25570011138916,
				-4.545951242107549e-07
			]
		},
		{
			"children":[
				14
			],
			"name":"body_top0",
			"translation":[
				1.4901161193847656e-08,
				3.546414613723755,
				1.777826810211991e-07
			]
		},
		{
			"name":"leg_right_foot_end",
			"translation":[
				0,
				3.6176536083221436,
				3.7062909541418776e-07
			]
		},
		{
			"children":[
				16
			],
			"name":"leg_right_foot",
			"rotation":[
				1.3739660289502353e-06,
				-9.438913409556826e-13,
				-6.869830144751177e-07,
				1
			],
			"translation":[
				-1.79704358060917e-07,
				0.3470541536808014,
				2.8440990718081594e-07
			]
		},
		{
			"children":[
				17
			],
			"name":"leg_right_bot",
			"rotation":[
				-1.3739660289502353e-06,
				9.438913409556826e-13,
				6.869830144751177e-07,
				1
			],
			"translation":[
				0,
				0.4241740107536316,
				-2.8371846383379307e-07
			]
		},
		{
			"children":[
				18
			],
			"name":"leg_right_top",
			"rotation":[
				0,
				0,
				-1,
				0
			],
			"translation":[
				-7.48246955871582,
				-2.142185926437378,
				-1.576427698135376
			]
		},
		{
			"name":"leg_left_foot_end",
			"rotation":[
				5.607216735370457e-08,
				3.14408613856195e-15,
				5.607213537928146e-08,
				1
			],
			"translation":[
				1.1178988756910258e-07,
				4.251997947692871,
				-2.2047743186703883e-07
			]
		},
		{
			"children":[
				20
			],
			"name":"leg_left_foot",
			"rotation":[
				4.796152097696904e-07,
				2.689305382390112e-14,
				-5.607213893199514e-08,
				1
			],
			"translation":[
				0,
				0.44507265090942383,
				5.151432560523972e-07
			]
		},
		{
			"children":[
				21
			],
			"name":"leg_left_bot",
			"rotation":[
				-5.35687377123395e-07,
				0,
				0,
				1
			],
			"translation":[
				0,
				0.5439820885658264,
				-2.309081992279971e-07
			]
		},
		{
			"children":[
				22
			],
			"name":"leg_left_top",
			"rotation":[
				0,
				0,
				-1,
				0
			],
			"translation":[
				7.677412986755371,
				-1.322884202003479,
				-3.067617177963257
			]
		},
		{
			"children":[
				15,
				19,
				23
			],
			"name":"body",
			"rotation":[
				-5.22382470080629e-06,
				0,
				0,
				1
			],
			"scale":[
				1,
				0.9999999403953552,
				1
			],
			"translation":[
				0,
				6.663529872894287,
				-6.797164678573608e-05
			]
		},
		{
			"children":[
				24
			],
			"name":"root",
			"rotation":[
				-0.7071030735969543,
				0,
				0,
				0.7071104645729065
			],
			"translation":[
				-0.17657138407230377,
				10.2548828125,
				33.11874008178711
			]
		},
		{
			"mesh":0,
			"name":"model",
			"skin":0
		},
		{
			"children":[
				26,
				25
			],
			"name":"rig",
			"rotation":[
				0.7071068286895752,
				0,
				0,
				0.7071068286895752
			]
		}
	],
	"materials":[
		{
			"doubleSided":true,
			"name":"tripo_material_673a5abb-fb57-4f03-b249-fb39650c50ad.001",
			"normalTexture":{
				"index":0
			},
			"pbrMetallicRoughness":{
				"baseColorTexture":{
					"index":1
				},
				"metallicFactor":0,
				"roughnessFactor":0.5
			}
		}
	],
	"meshes":[
		{
			"name":"model",
			"primitives":[
				{
					"attributes":{
						"POSITION":0,
						"NORMAL":1,
						"TEXCOORD_0":2,
						"JOINTS_0":3,
						"WEIGHTS_0":4
					},
					"indices":5,
					"material":0
				}
			]
		}
	],
	"textures":[
		{
			"sampler":0,
			"source":0
		},
		{
			"sampler":0,
			"source":1
		}
	],
	"images":[
		{
			"bufferView":6,
			"mimeType":"image/jpeg",
			"name":"NormalGL_673a5abb-fb57-4f03-b249-fb39650c50ad"
		},
		{
			"bufferView":7,
			"mimeType":"image/jpeg",
			"name":"Color_673a5abb-fb57-4f03-b249-fb39650c50ad"
		}
	],
	"skins":[
		{
			"inverseBindMatrices":6,
			"joints":[
				25,
				24,
				15,
				14,
				13,
				4,
				3,
				2,
				1,
				0,
				9,
				8,
				7,
				6,
				5,
				12,
				11,
				10,
				19,
				18,
				17,
				16,
				23,
				22,
				21,
				20
			],
			"name":"rig"
		}
	],
	"accessors":[
		{
			"bufferView":0,
			"componentType":5126,
			"count":12173,
			"max":[
				25.73343849182129,
				32.77216720581055,
				27.488344192504883
			],
			"min":[
				-25.860332489013672,
				-33.11874008178711,
				-27.86345100402832
			],
			"type":"VEC3"
		},
		{
			"bufferView":1,
			"componentType":5126,
			"count":12173,
			"type":"VEC3"
		},
		{
			"bufferView":2,
			"componentType":5126,
			"count":12173,
			"type":"VEC2"
		},
		{
			"bufferView":3,
			"componentType":5121,
			"count":12173,
			"type":"VEC4"
		},
		{
			"bufferView":4,
			"componentType":5126,
			"count":12173,
			"type":"VEC4"
		},
		{
			"bufferView":5,
			"componentType":5123,
			"count":59544,
			"type":"SCALAR"
		},
		{
			"bufferView":8,
			"componentType":5126,
			"count":26,
			"type":"MAT4"
		}
	],
	"bufferViews":[
		{
			"buffer":0,
			"byteLength":146076,
			"byteOffset":0,
			"target":34962
		},
		{
			"buffer":0,
			"byteLength":146076,
			"byteOffset":146076,
			"target":34962
		},
		{
			"buffer":0,
			"byteLength":97384,
			"byteOffset":292152,
			"target":34962
		},
		{
			"buffer":0,
			"byteLength":48692,
			"byteOffset":389536,
			"target":34962
		},
		{
			"buffer":0,
			"byteLength":194768,
			"byteOffset":438228,
			"target":34962
		},
		{
			"buffer":0,
			"byteLength":119088,
			"byteOffset":632996,
			"target":34963
		},
		{
			"buffer":0,
			"byteLength":533644,
			"byteOffset":752084
		},
		{
			"buffer":0,
			"byteLength":753326,
			"byteOffset":1285728
		},
		{
			"buffer":0,
			"byteLength":1664,
			"byteOffset":2039056
		}
	],
	"samplers":[
		{
			"magFilter":9729,
			"minFilter":9987
		}
	],
	"buffers":[
		{
			"byteLength":2040720,
			"uri":"data:application/octet-stream;base64,"
		}
	]
}
