{
	"asset":{
		"generator":"Khronos glTF Blender I/O v4.1.62",
		"version":"2.0"
	},
	"scene":0,
	"scenes":[
		{
			"name":"Scene",
			"nodes":[
				36
			]
		}
	],
	"nodes":[
		{
			"name":"head_end",
			"rotation":[
				-7.56936273660358e-08,
				0,
				0,
				1
			],
			"translation":[
				0,
				3.149784564971924,
				2.8412728170224e-07
			]
		},
		{
			"children":[
				0
			],
			"name":"head",
			"rotation":[
				7.56936273660358e-08,
				0,
				0,
				1
			],
			"translation":[
				0,
				6.299567699432373,
				-5.5924601838341914e-08
			]
		},
		{
			"children":[
				1
			],
			"name":"neck",
			"rotation":[
				-5.968058047756131e-08,
				0,
				0,
				1
			],
			"translation":[
				0,
				3.6926634311676025,
				-3.224955662517459e-07
			]
		},
		{
			"name":"arm_left_hand_end",
			"rotation":[
				-1.7136335372924805e-07,
				-3.059394657611847e-07,
				8.847564458847046e-09,
				1
			],
			"scale":[
				1,
				1,
				1.0000001192092896
			],
			"translation":[
				-1.5497207641601562e-06,
				4.2162885665893555,
				7.152557373046875e-07
			]
		},
		{
			"children":[
				3
			],
			"name":"arm_left_hand",
			"rotation":[
				2.1234156122318382e-07,
				3.0407682061195374e-07,
				-5.541370029504833e-08,
				1
			],
			"scale":[
				0.9999999403953552,
				0.9999999403953552,
				1
			],
			"translation":[
				4.76837158203125e-07,
				8.43257999420166,
				7.152557373046875e-07
			]
		},
		{
			"children":[
				4
			],
			"name":"arm_left_bot",
			"rotation":[
				0.2643032670021057,
				0.42822423577308655,
				0.02648080699145794,
				0.8637514710426331
			],
			"scale":[
				0.9999999403953552,
				1,
				1
			],
			"translation":[
				8.493661880493164e-07,
				8.377016067504883,
				3.8743019104003906e-07
			]
		},
		{
			"children":[
				5
			],
			"name":"arm_left_top",
			"rotation":[
				-0.012895597144961357,
				-0.01990540884435177,
				0.06139390543103218,
				0.9978318214416504
			],
			"scale":[
				1,
				0.9999999403953552,
				1
			],
			"translation":[
				1.9371509552001953e-06,
				2.433359384536743,
				8.940696716308594e-08
			]
		},
		{
			"children":[
				6
			],
			"name":"shoulder_left",
			"rotation":[
				0.031976956874132156,
				-6.554405729275459e-08,
				-0.8809646368026733,
				0.4721004366874695
			],
			"scale":[
				0.9999997615814209,
				0.9999999403953552,
				0.9999999403953552
			],
			"translation":[
				3.248319387435913,
				3.3192942142486572,
				-2.1567752361297607
			]
		},
		{
			"name":"index_right3_end",
			"rotation":[
				3.5278503673907835e-06,
				6.979331828915747e-06,
				6.03124544795719e-06,
				1
			],
			"scale":[
				1,
				0.9999998807907104,
				0.9999999403953552
			],
			"translation":[
				-2.0265579223632812e-06,
				0.5148348808288574,
				2.6226043701171875e-06
			]
		},
		{
			"children":[
				8
			],
			"name":"index_right3",
			"rotation":[
				-4.41819429397583e-06,
				-9.622424840927124e-06,
				-8.15466046333313e-06,
				1
			],
			"translation":[
				-1.7881393432617188e-06,
				1.0296711921691895,
				4.76837158203125e-07
			]
		},
		{
			"children":[
				9
			],
			"name":"index_right2",
			"rotation":[
				1.216307282447815e-06,
				-1.2312084436416626e-06,
				-5.383044481277466e-07,
				1
			],
			"translation":[
				-2.384185791015625e-07,
				1.029672384262085,
				2.384185791015625e-07
			]
		},
		{
			"children":[
				10
			],
			"name":"index_right1",
			"rotation":[
				5.774199962615967e-08,
				2.9653310775756836e-06,
				2.210959792137146e-06,
				1
			],
			"translation":[
				8.344650268554688e-07,
				2.3167548179626465,
				1.9073486328125e-06
			]
		},
		{
			"children":[
				11
			],
			"name":"index_right0",
			"rotation":[
				0.006613290403038263,
				-0.12692789733409882,
				-0.08707785606384277,
				0.9880602359771729
			],
			"scale":[
				0.9999999403953552,
				0.9999998807907104,
				0.9999999403953552
			],
			"translation":[
				-0.6147794723510742,
				4.194433212280273,
				-0.12689530849456787
			]
		},
		{
			"name":"thumb_right3_end",
			"rotation":[
				-2.2724270820617676e-07,
				1.631677264413156e-06,
				1.385807991027832e-06,
				1
			],
			"scale":[
				0.9999998807907104,
				1,
				1
			],
			"translation":[
				-9.5367431640625e-07,
				0.7090533971786499,
				4.76837158203125e-07
			]
		},
		{
			"children":[
				13
			],
			"name":"thumb_right3",
			"rotation":[
				6.407499313354492e-07,
				-2.190470922869281e-06,
				-1.3541430234909058e-06,
				1
			],
			"scale":[
				0.9999999403953552,
				1,
				0.9999998807907104
			],
			"translation":[
				0,
				1.4181022644042969,
				2.1457672119140625e-06
			]
		},
		{
			"children":[
				14
			],
			"name":"thumb_right2",
			"rotation":[
				-1.899897910107029e-07,
				-1.3522803783416748e-06,
				-1.6707925851733307e-06,
				1
			],
			"scale":[
				1,
				1.0000001192092896,
				1
			],
			"translation":[
				9.5367431640625e-07,
				1.7017240524291992,
				4.76837158203125e-07
			]
		},
		{
			"children":[
				15
			],
			"name":"thumb_right1",
			"rotation":[
				3.203749656677246e-07,
				8.791685672804306e-07,
				1.2069940567016602e-06,
				1
			],
			"scale":[
				0.9999999403953552,
				1.0000001192092896,
				1
			],
			"translation":[
				1.1920928955078125e-06,
				1.4181060791015625,
				-1.6689300537109375e-06
			]
		},
		{
			"children":[
				16
			],
			"name":"thumb_right0",
			"rotation":[
				-0.13727997243404388,
				0.30081692337989807,
				0.14111799001693726,
				0.9331393837928772
			],
			"scale":[
				0.9999999403953552,
				0.9999998807907104,
				0.9999998807907104
			],
			"translation":[
				-1.0574698448181152,
				2.4116954803466797,
				1.2990031242370605
			]
		},
		{
			"children":[
				12,
				17
			],
			"name":"arm_right_hand",
			"rotation":[
				0.18710239231586456,
				-0.4767160713672638,
				-0.23997502028942108,
				0.824709951877594
			],
			"translation":[
				-1.9073486328125e-06,
				8.89773941040039,
				9.5367431640625e-07
			]
		},
		{
			"children":[
				18
			],
			"name":"arm_right_bot",
			"rotation":[
				0.23173682391643524,
				-0.29256755113601685,
				0.1456231325864792,
				0.9162402749061584
			],
			"scale":[
				1.0000001192092896,
				1,
				1
			],
			"translation":[
				-2.9802322387695312e-08,
				7.897084712982178,
				-5.960464477539063e-08
			]
		},
		{
			"children":[
				19
			],
			"name":"arm_right_top",
			"rotation":[
				0.0053224037401378155,
				-0.007636613212525845,
				0.014483470469713211,
				0.9998517632484436
			],
			"scale":[
				1,
				0.9999999403953552,
				1
			],
			"translation":[
				2.384185791015625e-07,
				2.2734804153442383,
				9.5367431640625e-07
			]
		},
		{
			"children":[
				20
			],
			"name":"shoulder_right",
			"rotation":[
				-0.06161457672715187,
				4.4101323481982035e-08,
				0.7602405548095703,
				0.6467131972312927
			],
			"translation":[
				-2.5778582096099854,
				1.4081032276153564,
				-1.195751428604126
			]
		},
		{
			"children":[
				2,
				7,
				21
			],
			"name":"body_top2",
			"rotation":[
				-1.1428809898461623e-08,
				0,
				0,
				1
			],
			"translation":[
				0,
				3.3528428077697754,
				4.6101558837108314e-07
			]
		},
		{
			"children":[
				22
			],
			"name":"body_top1",
			"rotation":[
				7.110939037602293e-08,
				0,
				0,
				1
			],
			"translation":[
				0,
				4.023412227630615,
				-1.0977538522638497e-07
			]
		},
		{
			"children":[
				23
			],
			"name":"body_top0",
			"rotation":[
				-1.3642420526593924e-12,
				0,
				0,
				1
			],
			"translation":[
				0,
				3.3528385162353516,
				-4.1355406210641377e-07
			]
		},
		{
			"name":"leg_right_foot_end",
			"rotation":[
				-2.196961546019338e-08,
				0,
				0,
				1
			],
			"translation":[
				0,
				10.85219669342041,
				-4.458252078620717e-07
			]
		},
		{
			"children":[
				25
			],
			"name":"leg_right_foot",
			"rotation":[
				4.9862975970427215e-09,
				0,
				0,
				1
			],
			"translation":[
				0,
				14.038400650024414,
				1.8398463907942642e-07
			]
		},
		{
			"children":[
				26
			],
			"name":"leg_right_bot",
			"rotation":[
				1.698468210520332e-08,
				0,
				0,
				1
			],
			"translation":[
				0,
				17.158042907714844,
				-1.616496092538e-07
			]
		},
		{
			"children":[
				27
			],
			"name":"leg_right_top",
			"rotation":[
				0,
				0,
				-1,
				0
			],
			"translation":[
				-6.449741363525391,
				-1.4169341325759888,
				1.13730788230896
			]
		},
		{
			"name":"leg_left_foot_end",
			"rotation":[
				-5.446464612646196e-08,
				0,
				0,
				1
			],
			"translation":[
				0,
				8.754984855651855,
				-1.9207072909921408e-07
			]
		},
		{
			"children":[
				29
			],
			"name":"leg_left_foot",
			"rotation":[
				3.867591757966693e-08,
				0,
				0,
				1
			],
			"translation":[
				0,
				15.100557327270508,
				1.1134488886455074e-08
			]
		},
		{
			"children":[
				30
			],
			"name":"leg_left_bot",
			"rotation":[
				1.5790092788847687e-08,
				0,
				0,
				1
			],
			"translation":[
				0,
				18.456239700317383,
				2.2497022200695937e-07
			]
		},
		{
			"children":[
				31
			],
			"name":"leg_left_top",
			"rotation":[
				0,
				0,
				-1,
				0
			],
			"translation":[
				4.7237982749938965,
				-1.3137446641921997,
				0.7254201769828796
			]
		},
		{
			"children":[
				24,
				28,
				32
			],
			"name":"body",
			"rotation":[
				-5.0060452849720605e-06,
				0,
				0,
				1
			],
			"translation":[
				0,
				43.625526428222656,
				-0.0004368869704194367
			]
		},
		{
			"children":[
				33
			],
			"name":"root",
			"rotation":[
				-0.7071031928062439,
				0,
				0,
				0.7071103453636169
			],
			"translation":[
				0.2845320403575897,
				6.662391662597656,
				39.823997497558594
			]
		},
		{
			"mesh":0,
			"name":"model",
			"skin":0
		},
		{
			"children":[
				35,
				34
			],
			"name":"rig",
			"rotation":[
				0.7071068286895752,
				0,
				0,
				0.7071068286895752
			]
		}
	],
	"materials":[
		{
			"doubleSided":true,
			"name":"tripo_material_34e80f58-7caa-4ab7-b73a-065c9de9af6b.001",
			"normalTexture":{
				"index":0
			},
			"pbrMetallicRoughness":{
				"baseColorTexture":{
					"index":1
				},
				"metallicFactor":0,
				"roughnessFactor":0.5
			}
		}
	],
	"meshes":[
		{
			"name":"model",
			"primitives":[
				{
					"attributes":{
						"POSITION":0,
						"NORMAL":1,
						"TEXCOORD_0":2,
						"JOINTS_0":3,
						"WEIGHTS_0":4
					},
					"indices":5,
					"material":0
				}
			]
		}
	],
	"textures":[
		{
			"sampler":0,
			"source":0
		},
		{
			"sampler":0,
			"source":1
		}
	],
	"images":[
		{
			"bufferView":6,
			"mimeType":"image/jpeg",
			"name":"NormalGL_34e80f58-7caa-4ab7-b73a-065c9de9af6b"
		},
		{
			"bufferView":7,
			"mimeType":"image/jpeg",
			"name":"Color_34e80f58-7caa-4ab7-b73a-065c9de9af6b"
		}
	],
	"skins":[
		{
			"inverseBindMatrices":6,
			"joints":[
				34,
				33,
				24,
				23,
				22,
				2,
				1,
				0,
				7,
				6,
				5,
				4,
				3,
				21,
				20,
				19,
				18,
				12,
				11,
				10,
				9,
				8,
				17,
				16,
				15,
				14,
				13,
				28,
				27,
				26,
				25,
				32,
				31,
				30,
				29
			],
			"name":"rig"
		}
	],
	"accessors":[
		{
			"bufferView":0,
			"componentType":5126,
			"count":12024,
			"max":[
				24.062288284301758,
				40.35413360595703,
				17.141489028930664
			],
			"min":[
				-24.918163299560547,
				-39.823997497558594,
				-17.416780471801758
			],
			"type":"VEC3"
		},
		{
			"bufferView":1,
			"componentType":5126,
			"count":12024,
			"type":"VEC3"
		},
		{
			"bufferView":2,
			"componentType":5126,
			"count":12024,
			"type":"VEC2"
		},
		{
			"bufferView":3,
			"componentType":5121,
			"count":12024,
			"type":"VEC4"
		},
		{
			"bufferView":4,
			"componentType":5126,
			"count":12024,
			"type":"VEC4"
		},
		{
			"bufferView":5,
			"componentType":5123,
			"count":59544,
			"type":"SCALAR"
		},
		{
			"bufferView":8,
			"componentType":5126,
			"count":35,
			"type":"MAT4"
		}
	],
	"bufferViews":[
		{
			"buffer":0,
			"byteLength":144288,
			"byteOffset":0,
			"target":34962
		},
		{
			"buffer":0,
			"byteLength":144288,
			"byteOffset":144288,
			"target":34962
		},
		{
			"buffer":0,
			"byteLength":96192,
			"byteOffset":288576,
			"target":34962
		},
		{
			"buffer":0,
			"byteLength":48096,
			"byteOffset":384768,
			"target":34962
		},
		{
			"buffer":0,
			"byteLength":192384,
			"byteOffset":432864,
			"target":34962
		},
		{
			"buffer":0,
			"byteLength":119088,
			"byteOffset":625248,
			"target":34963
		},
		{
			"buffer":0,
			"byteLength":588085,
			"byteOffset":744336
		},
		{
			"buffer":0,
			"byteLength":818454,
			"byteOffset":1332424
		},
		{
			"buffer":0,
			"byteLength":2240,
			"byteOffset":2150880
		}
	],
	"samplers":[
		{
			"magFilter":9729,
			"minFilter":9987
		}
	],
	"buffers":[
		{
			"byteLength":2153120,
			"uri":"data:application/octet-stream;base64,"
		}
	]
}
