{
	"asset":{
		"generator":"Khronos glTF Blender I/O v4.1.62",
		"version":"2.0"
	},
	"scene":0,
	"scenes":[
		{
			"name":"Scene",
			"nodes":[
				60
			]
		}
	],
	"nodes":[
		{
			"name":"thumb_right3_end",
			"rotation":[
				-2.602115273475647e-06,
				-1.5303492546081543e-05,
				-1.9669532775878906e-06,
				1
			],
			"translation":[
				1.0728836059570312e-06,
				0.93123459815979,
				1.1920928955078125e-07
			]
		},
		{
			"children":[
				0
			],
			"name":"thumb_right3",
			"rotation":[
				5.0123776418331545e-06,
				2.7066094844485633e-05,
				3.2000241390051087e-06,
				1
			],
			"scale":[
				1,
				1.0000001192092896,
				1.0000001192092896
			],
			"translation":[
				-6.556510925292969e-07,
				1.8624675273895264,
				-2.6226043701171875e-06
			]
		},
		{
			"children":[
				1
			],
			"name":"thumb_right2",
			"rotation":[
				-3.0137603062030394e-06,
				-1.6266480088233948e-05,
				-1.8179417793362518e-06,
				1
			],
			"scale":[
				1,
				0.9999999403953552,
				0.9999999403953552
			],
			"translation":[
				-1.1920928955078125e-06,
				2.234964609146118,
				-1.9073486328125e-06
			]
		},
		{
			"children":[
				2
			],
			"name":"thumb_right1",
			"rotation":[
				7.525086971327255e-07,
				5.271285772323608e-06,
				7.897616569607635e-07,
				1
			],
			"scale":[
				0.9999999403953552,
				0.9999999403953552,
				1
			],
			"translation":[
				1.3113021850585938e-06,
				1.86246657371521,
				1.6689300537109375e-06
			]
		},
		{
			"children":[
				3
			],
			"name":"thumb_right0",
			"rotation":[
				0.2129318118095398,
				-0.891080915927887,
				-0.3742392957210541,
				0.1434565931558609
			],
			"scale":[
				1.0000001192092896,
				1.0000001192092896,
				1.000000238418579
			],
			"translation":[
				2.9786016941070557,
				2.4947402477264404,
				-0.3331272602081299
			]
		},
		{
			"name":"middle_right3_end",
			"rotation":[
				-9.648501873016357e-07,
				4.407018423080444e-06,
				1.3932585716247559e-06,
				1
			],
			"scale":[
				1,
				1.0000001192092896,
				1
			],
			"translation":[
				-1.9371509552001953e-07,
				0.6329177021980286,
				-3.606081008911133e-06
			]
		},
		{
			"children":[
				5
			],
			"name":"middle_right3",
			"rotation":[
				1.4007091522216797e-06,
				-6.668270088994177e-06,
				-2.089887857437134e-06,
				1
			],
			"scale":[
				1,
				1,
				0.9999999403953552
			],
			"translation":[
				-5.364418029785156e-07,
				1.2658323049545288,
				1.7881393432617188e-07
			]
		},
		{
			"children":[
				6
			],
			"name":"middle_right2",
			"rotation":[
				8.419156642958114e-07,
				-1.0244548320770264e-06,
				-8.195638656616211e-08,
				1
			],
			"scale":[
				1,
				0.9999999403953552,
				1
			],
			"translation":[
				-1.7881393432617188e-07,
				1.2658350467681885,
				-1.7881393432617188e-06
			]
		},
		{
			"children":[
				7
			],
			"name":"middle_right1",
			"rotation":[
				-5.550682544708252e-07,
				7.37607479095459e-07,
				-4.470348358154297e-08,
				1
			],
			"translation":[
				5.364418029785156e-07,
				2.84812593460083,
				-2.5033950805664062e-06
			]
		},
		{
			"children":[
				8
			],
			"name":"middle_right0",
			"rotation":[
				0.13658958673477173,
				-0.3521564304828644,
				-0.08325082808732986,
				0.9221705198287964
			],
			"scale":[
				1.0000001192092896,
				1.0000001192092896,
				1.0000001192092896
			],
			"translation":[
				-1.554058313369751,
				4.56616735458374,
				-1.4314265251159668
			]
		},
		{
			"name":"index_right3_end",
			"rotation":[
				2.421438694000244e-08,
				-9.313225746154785e-09,
				-2.421438694000244e-08,
				1
			],
			"translation":[
				2.384185791015625e-07,
				0.7222572565078735,
				-5.960464477539062e-07
			]
		},
		{
			"children":[
				10
			],
			"name":"index_right3",
			"rotation":[
				5.522743435903976e-07,
				-1.2218953315823455e-06,
				8.009374852235851e-08,
				1
			],
			"scale":[
				0.9999998807907104,
				0.9999998807907104,
				0.9999998807907104
			],
			"translation":[
				8.940696716308594e-07,
				1.4445194005966187,
				-7.331371307373047e-06
			]
		},
		{
			"children":[
				11
			],
			"name":"index_right2",
			"rotation":[
				0.008251258172094822,
				-0.023126952350139618,
				-0.003367335069924593,
				0.9996928572654724
			],
			"scale":[
				1,
				1,
				0.9999999403953552
			],
			"translation":[
				-2.384185791015625e-07,
				1.4508271217346191,
				-1.4901161193847656e-07
			]
		},
		{
			"children":[
				12
			],
			"name":"index_right1",
			"rotation":[
				1.4211982488632202e-06,
				-3.642402816694812e-06,
				-6.444752216339111e-07,
				1
			],
			"scale":[
				0.9999999403953552,
				1,
				1
			],
			"translation":[
				-3.5762786865234375e-07,
				3.2643611431121826,
				-7.450580596923828e-07
			]
		},
		{
			"children":[
				13
			],
			"name":"index_right0",
			"rotation":[
				0.10968471318483353,
				-0.1576848030090332,
				0.02254587411880493,
				0.9811199903488159
			],
			"scale":[
				1.0000001192092896,
				1.0000001192092896,
				0.9999999403953552
			],
			"translation":[
				1.6881228685379028,
				4.566168785095215,
				-0.4079091548919678
			]
		},
		{
			"children":[
				4,
				9,
				14
			],
			"name":"arm_right_hand",
			"rotation":[
				0.1814263015985489,
				-0.40934398770332336,
				-0.0688394233584404,
				0.8915061354637146
			],
			"scale":[
				0.9999999403953552,
				0.9999999403953552,
				0.9999999403953552
			],
			"translation":[
				8.344650268554688e-07,
				6.893099308013916,
				3.5762786865234375e-07
			]
		},
		{
			"children":[
				15
			],
			"name":"arm_right_bot",
			"rotation":[
				0.14553548395633698,
				-0.27842622995376587,
				0.08721809089183807,
				0.9453524947166443
			],
			"scale":[
				0.9999999403953552,
				1.0000001192092896,
				0.9999999403953552
			],
			"translation":[
				-2.4437904357910156e-06,
				6.101619243621826,
				4.76837158203125e-07
			]
		},
		{
			"children":[
				16
			],
			"name":"arm_right_top",
			"rotation":[
				-0.006929658353328705,
				-4.566330972011201e-05,
				0.034632496535778046,
				0.999376118183136
			],
			"scale":[
				1,
				0.9999998211860657,
				0.9999998807907104
			],
			"translation":[
				-2.6226043701171875e-06,
				1.7505874633789062,
				-7.152557373046875e-07
			]
		},
		{
			"children":[
				17
			],
			"name":"shoulder_right",
			"rotation":[
				-0.16726277768611908,
				-3.580047902573824e-08,
				0.8324559926986694,
				0.5282425880432129
			],
			"scale":[
				1.0000001192092896,
				1,
				1
			],
			"translation":[
				-7.719112396240234,
				0.5178336501121521,
				-4.456515789031982
			]
		},
		{
			"name":"head_end",
			"translation":[
				0,
				2.6960060596466064,
				2.9701209314225707e-07
			]
		},
		{
			"children":[
				19
			],
			"name":"head",
			"rotation":[
				-7.105427357601002e-15,
				0,
				0,
				1
			],
			"scale":[
				1,
				0.9999999403953552,
				1
			],
			"translation":[
				0,
				5.3920111656188965,
				9.346899787487928e-08
			]
		},
		{
			"children":[
				20
			],
			"name":"neck",
			"rotation":[
				6.950835995667148e-08,
				0,
				0,
				1
			],
			"translation":[
				0,
				5.144043922424316,
				-1.1937227100133896e-06
			]
		},
		{
			"name":"ring_left3_end",
			"rotation":[
				-4.500179784372449e-09,
				-3.2014213502407074e-10,
				1.1641532182693481e-10,
				1
			],
			"translation":[
				-1.4901161193847656e-07,
				0.20000052452087402,
				1.1094380170106888e-06
			]
		},
		{
			"children":[
				22
			],
			"name":"ring_left3",
			"rotation":[
				1.1734301352817056e-07,
				2.2202730178833008e-06,
				-4.1432215880377044e-07,
				1
			],
			"scale":[
				1,
				0.9999999403953552,
				1
			],
			"translation":[
				3.129243850708008e-07,
				0.4000002145767212,
				-5.456618964672089e-06
			]
		},
		{
			"children":[
				23
			],
			"name":"ring_left2",
			"rotation":[
				-1.2211967259645462e-07,
				2.717861207202077e-06,
				1.260777935385704e-07,
				1
			],
			"translation":[
				-9.201467037200928e-07,
				0.399999737739563,
				-2.861255779862404e-06
			]
		},
		{
			"children":[
				24
			],
			"name":"ring_left1",
			"rotation":[
				-1.3499776514436235e-06,
				6.728311291226419e-06,
				9.20845266705328e-08,
				1
			],
			"scale":[
				1,
				0.9999999403953552,
				0.9999999403953552
			],
			"translation":[
				6.370246410369873e-07,
				0.8999965786933899,
				1.1764932423830032e-06
			]
		},
		{
			"children":[
				25
			],
			"name":"ring_left0",
			"rotation":[
				0.2666235864162445,
				0.5671973824501038,
				-0.36106351017951965,
				0.6905303001403809
			],
			"scale":[
				1,
				0.9999998807907104,
				1
			],
			"translation":[
				-0.2815696597099304,
				9.981870651245117,
				-1.644708514213562
			]
		},
		{
			"name":"thumb_left3_end",
			"rotation":[
				-4.05358150601387e-06,
				-5.304766818881035e-05,
				-8.582137525081635e-06,
				1
			],
			"translation":[
				-1.1101365089416504e-06,
				0.30491888523101807,
				-2.682209014892578e-07
			]
		},
		{
			"children":[
				27
			],
			"name":"thumb_left3",
			"rotation":[
				4.055909812450409e-06,
				4.355842247605324e-05,
				6.946735538804205e-06,
				1
			],
			"scale":[
				1,
				0.9999999403953552,
				1
			],
			"translation":[
				8.270144462585449e-07,
				0.6098363399505615,
				-1.7881393432617188e-07
			]
		},
		{
			"children":[
				28
			],
			"name":"thumb_left2",
			"rotation":[
				-1.4156103134155273e-07,
				9.480398148298264e-06,
				1.6745179891586304e-06,
				1
			],
			"translation":[
				2.8312206268310547e-07,
				0.7318047881126404,
				4.172325134277344e-07
			]
		},
		{
			"children":[
				29
			],
			"name":"thumb_left1",
			"rotation":[
				-1.91852478792498e-07,
				-8.658041224407498e-06,
				-1.3634563629238983e-06,
				1
			],
			"scale":[
				0.9999998807907104,
				0.9999999403953552,
				0.9999999403953552
			],
			"translation":[
				-2.130866050720215e-06,
				0.6098361611366272,
				7.748603820800781e-07
			]
		},
		{
			"children":[
				30
			],
			"name":"thumb_left0",
			"rotation":[
				0.3243796229362488,
				0.8799023628234863,
				0.09925810247659683,
				0.3327125012874603
			],
			"scale":[
				1,
				1.000000238418579,
				1
			],
			"translation":[
				1.2507705688476562,
				4.753814220428467,
				2.7543580532073975
			]
		},
		{
			"name":"middle_left3_end",
			"rotation":[
				-1.4733525404153625e-06,
				8.455594070255756e-06,
				-3.5666164421854774e-06,
				1
			],
			"scale":[
				1,
				0.9999998807907104,
				0.9999998807907104
			],
			"translation":[
				-2.294778823852539e-06,
				0.26749345660209656,
				7.674098014831543e-07
			]
		},
		{
			"children":[
				32
			],
			"name":"middle_left3",
			"rotation":[
				2.209097146987915e-06,
				-1.6407808288931847e-05,
				-2.7439088512437593e-07,
				1
			],
			"scale":[
				1.0000001192092896,
				1.0000001192092896,
				1
			],
			"translation":[
				-2.562999725341797e-06,
				0.5349848866462708,
				7.413327693939209e-07
			]
		},
		{
			"children":[
				33
			],
			"name":"middle_left2",
			"rotation":[
				-0.10141125321388245,
				0.7242090702056885,
				-0.02245321311056614,
				0.6817131638526917
			],
			"scale":[
				1,
				0.9999998807907104,
				0.9999999403953552
			],
			"translation":[
				1.8998980522155762e-07,
				0.517970085144043,
				1.2069940567016602e-06
			]
		},
		{
			"children":[
				34
			],
			"name":"middle_left1",
			"rotation":[
				0.07202917337417603,
				0.9825711250305176,
				0.13487540185451508,
				0.10570923984050751
			],
			"scale":[
				0.9999999403953552,
				0.9999997615814209,
				0.9999999403953552
			],
			"translation":[
				-2.2351741790771484e-08,
				1.2037177085876465,
				6.668269634246826e-07
			]
		},
		{
			"children":[
				35
			],
			"name":"middle_left0",
			"rotation":[
				0.22546856105327606,
				0.5456973314285278,
				-0.1179572194814682,
				0.7984136939048767
			],
			"scale":[
				1,
				0.9999999403953552,
				1
			],
			"translation":[
				-0.07016754150390625,
				9.848882675170898,
				-0.2080739438533783
			]
		},
		{
			"name":"index_left3_end",
			"rotation":[
				-3.4458935260772705e-08,
				1.4901159417490817e-08,
				1.862645149230957e-08,
				1
			],
			"scale":[
				1.0000001192092896,
				1,
				1.0000001192092896
			],
			"translation":[
				5.960464477539063e-08,
				0.2676302194595337,
				-9.238719940185547e-07
			]
		},
		{
			"children":[
				37
			],
			"name":"index_left3",
			"rotation":[
				-1.3737007975578308e-06,
				3.986060619354248e-06,
				-3.413297235965729e-07,
				1
			],
			"translation":[
				4.470348358154297e-07,
				0.5352583527565002,
				3.6656856536865234e-06
			]
		},
		{
			"children":[
				38
			],
			"name":"index_left2",
			"rotation":[
				-0.07123862206935883,
				0.5349067449569702,
				0.0692354068160057,
				0.839050829410553
			],
			"scale":[
				1,
				1,
				0.9999998807907104
			],
			"translation":[
				1.3243407011032104e-06,
				0.5286327600479126,
				4.3958425521850586e-07
			]
		},
		{
			"children":[
				39
			],
			"name":"index_left1",
			"rotation":[
				0.008176060393452644,
				0.35509970784187317,
				0.06173010542988777,
				0.932752251625061
			],
			"translation":[
				3.0882656574249268e-06,
				1.2043306827545166,
				6.705522537231445e-07
			]
		},
		{
			"children":[
				40
			],
			"name":"index_left0",
			"rotation":[
				0.32697099447250366,
				0.8960847854614258,
				0.12601600587368011,
				0.27247393131256104
			],
			"scale":[
				1,
				0.9999999403953552,
				0.9999999403953552
			],
			"translation":[
				-1.0044174194335938,
				9.801615715026855,
				1.6752467155456543
			]
		},
		{
			"children":[
				26,
				31,
				36,
				41
			],
			"name":"arm_left_hand",
			"rotation":[
				0.0002864847774617374,
				-0.024686934426426888,
				-0.07214880734682083,
				0.9970882534980774
			],
			"scale":[
				0.9999998807907104,
				0.9999999403953552,
				0.9999998807907104
			],
			"translation":[
				-8.344650268554688e-07,
				6.893099308013916,
				3.5762786865234375e-07
			]
		},
		{
			"children":[
				42
			],
			"name":"arm_left_bot",
			"rotation":[
				0.14553548395633698,
				0.27842622995376587,
				-0.08721809089183807,
				0.9453524947166443
			],
			"scale":[
				0.9999999403953552,
				1.0000001192092896,
				0.9999999403953552
			],
			"translation":[
				2.4437904357910156e-06,
				6.101619243621826,
				4.76837158203125e-07
			]
		},
		{
			"children":[
				43
			],
			"name":"arm_left_top",
			"rotation":[
				-0.006929658353328705,
				4.566330972011201e-05,
				-0.034632496535778046,
				0.999376118183136
			],
			"scale":[
				1,
				0.9999998211860657,
				0.9999998807907104
			],
			"translation":[
				2.6226043701171875e-06,
				1.7505874633789062,
				-7.152557373046875e-07
			]
		},
		{
			"children":[
				44
			],
			"name":"shoulder_left",
			"rotation":[
				-0.16726277768611908,
				3.580047902573824e-08,
				-0.8324559926986694,
				0.5282425880432129
			],
			"scale":[
				1.0000001192092896,
				1,
				1
			],
			"translation":[
				4.714578628540039,
				0.5178336501121521,
				-4.456515789031982
			]
		},
		{
			"children":[
				18,
				21,
				45
			],
			"name":"body_top2",
			"rotation":[
				-2.860494987544371e-07,
				0,
				0,
				1
			],
			"translation":[
				0,
				2.2020630836486816,
				1.3003500498598441e-08
			]
		},
		{
			"children":[
				46
			],
			"name":"body_top1",
			"rotation":[
				2.165411387977656e-07,
				0,
				0,
				1
			],
			"translation":[
				0,
				2.6424734592437744,
				8.544247975805774e-08
			]
		},
		{
			"children":[
				47
			],
			"name":"body_top0",
			"rotation":[
				-9.094947017729282e-13,
				0,
				0,
				1
			],
			"translation":[
				0,
				2.2020647525787354,
				-1.1407900046833674e-07
			]
		},
		{
			"name":"leg_right_foot_end",
			"rotation":[
				-1.010692329828089e-07,
				-3.404996638513508e-15,
				3.3689744327602966e-08,
				1
			],
			"translation":[
				-2.0498927710832504e-07,
				7.0768890380859375,
				-1.7824640963226557e-07
			]
		},
		{
			"children":[
				49
			],
			"name":"leg_right_foot",
			"rotation":[
				1.1665947141636934e-07,
				2.111478860476073e-15,
				-4.927998631387709e-08,
				1
			],
			"translation":[
				2.382967778657985e-08,
				15.292808532714844,
				-4.3567069951677695e-07
			]
		},
		{
			"children":[
				50
			],
			"name":"leg_right_bot",
			"rotation":[
				-1.558933249157235e-08,
				2.4304146642650174e-16,
				1.5590241986274123e-08,
				1
			],
			"translation":[
				0,
				18.691211700439453,
				2.1826667762070429e-07
			]
		},
		{
			"children":[
				51
			],
			"name":"leg_right_top",
			"rotation":[
				0,
				0,
				-1,
				0
			],
			"translation":[
				-6.787814140319824,
				-6.284824371337891,
				-4.285618782043457
			]
		},
		{
			"name":"leg_left_foot_end",
			"rotation":[
				-9.317557214671979e-08,
				2.8938954758326056e-15,
				-3.105852641738238e-08,
				1
			],
			"translation":[
				4.001307019052547e-08,
				7.676431179046631,
				-2.0541847334243357e-07
			]
		},
		{
			"children":[
				53
			],
			"name":"leg_left_foot",
			"rotation":[
				1.0876581768570759e-07,
				-1.6824201443959197e-15,
				4.664877195637018e-08,
				1
			],
			"scale":[
				1,
				0.9999999403953552,
				1
			],
			"translation":[
				-2.382967778657985e-08,
				15.292808532714844,
				-4.3567069951677695e-07
			]
		},
		{
			"children":[
				54
			],
			"name":"leg_left_bot",
			"rotation":[
				-1.558933249157235e-08,
				-2.4304146642650174e-16,
				-1.5590241986274123e-08,
				1
			],
			"translation":[
				0,
				18.691211700439453,
				2.1826667762070429e-07
			]
		},
		{
			"children":[
				55
			],
			"name":"leg_left_top",
			"rotation":[
				0,
				0,
				-1,
				0
			],
			"translation":[
				3.783280372619629,
				-6.284824371337891,
				-4.285618782043457
			]
		},
		{
			"children":[
				48,
				52,
				56
			],
			"name":"body",
			"rotation":[
				-4.7638677642680705e-06,
				0,
				0,
				1
			],
			"translation":[
				0,
				47.945274353027344,
				-0.0004581446701195091
			]
		},
		{
			"children":[
				57
			],
			"name":"root",
			"rotation":[
				-0.7071033716201782,
				0,
				0,
				0.7071101665496826
			],
			"translation":[
				1.5022670030593872,
				9.084856986999512,
				39.02629470825195
			]
		},
		{
			"mesh":0,
			"name":"model",
			"skin":0
		},
		{
			"children":[
				59,
				58
			],
			"name":"rig",
			"rotation":[
				0.7071068286895752,
				0,
				0,
				0.7071068286895752
			]
		}
	],
	"materials":[
		{
			"doubleSided":true,
			"name":"mat_173baf4a-cf81-4da4-b653-31751d53033f",
			"pbrMetallicRoughness":{
				"baseColorTexture":{
					"index":0
				},
				"metallicFactor":0,
				"roughnessFactor":0
			}
		}
	],
	"meshes":[
		{
			"name":"model",
			"primitives":[
				{
					"attributes":{
						"POSITION":0,
						"NORMAL":1,
						"TEXCOORD_0":2,
						"JOINTS_0":3,
						"WEIGHTS_0":4
					},
					"indices":5,
					"material":0
				}
			]
		}
	],
	"textures":[
		{
			"sampler":0,
			"source":0
		}
	],
	"images":[
		{
			"mimeType":"image/jpeg",
			"name":"texture_2",
			"uri":"texture_2.jpg"
		}
	],
	"skins":[
		{
			"inverseBindMatrices":6,
			"joints":[
				58,
				57,
				48,
				47,
				46,
				18,
				17,
				16,
				15,
				4,
				3,
				2,
				1,
				0,
				9,
				8,
				7,
				6,
				5,
				14,
				13,
				12,
				11,
				10,
				21,
				20,
				19,
				45,
				44,
				43,
				42,
				26,
				25,
				24,
				23,
				22,
				31,
				30,
				29,
				28,
				27,
				36,
				35,
				34,
				33,
				32,
				41,
				40,
				39,
				38,
				37,
				52,
				51,
				50,
				49,
				56,
				55,
				54,
				53
			],
			"name":"rig"
		}
	],
	"accessors":[
		{
			"bufferView":0,
			"componentType":5126,
			"count":12599,
			"max":[
				25.636262893676758,
				40.44456481933594,
				16.467687606811523
			],
			"min":[
				-24.563026428222656,
				-39.02629089355469,
				-17.41320037841797
			],
			"type":"VEC3"
		},
		{
			"bufferView":1,
			"componentType":5126,
			"count":12599,
			"type":"VEC3"
		},
		{
			"bufferView":2,
			"componentType":5126,
			"count":12599,
			"type":"VEC2"
		},
		{
			"bufferView":3,
			"componentType":5121,
			"count":12599,
			"type":"VEC4"
		},
		{
			"bufferView":4,
			"componentType":5126,
			"count":12599,
			"type":"VEC4"
		},
		{
			"bufferView":5,
			"componentType":5123,
			"count":59532,
			"type":"SCALAR"
		},
		{
			"bufferView":6,
			"componentType":5126,
			"count":59,
			"type":"MAT4"
		}
	],
	"bufferViews":[
		{
			"buffer":0,
			"byteLength":151188,
			"byteOffset":0,
			"target":34962
		},
		{
			"buffer":0,
			"byteLength":151188,
			"byteOffset":151188,
			"target":34962
		},
		{
			"buffer":0,
			"byteLength":100792,
			"byteOffset":302376,
			"target":34962
		},
		{
			"buffer":0,
			"byteLength":50396,
			"byteOffset":403168,
			"target":34962
		},
		{
			"buffer":0,
			"byteLength":201584,
			"byteOffset":453564,
			"target":34962
		},
		{
			"buffer":0,
			"byteLength":119064,
			"byteOffset":655148,
			"target":34963
		},
		{
			"buffer":0,
			"byteLength":3776,
			"byteOffset":774212
		}
	],
	"samplers":[
		{
			"magFilter":9729,
			"minFilter":9987
		}
	],
	"buffers":[
		{
			"byteLength":777988,
			"uri":"model.bin"
		}
	]
}
