{
	"asset":{
		"generator":"Khronos glTF Blender I/O v4.1.62",
		"version":"2.0"
	},
	"scene":0,
	"scenes":[
		{
			"name":"Scene",
			"nodes":[
				27
			]
		}
	],
	"nodes":[
		{
			"name":"head_end",
			"translation":[
				0,
				7.351675510406494,
				-2.0629602204280673e-07
			]
		},
		{
			"children":[
				0
			],
			"name":"head",
			"rotation":[
				-3.552713678800501e-15,
				0,
				0,
				1
			],
			"translation":[
				0,
				14.703351974487305,
				1.9234215642427444e-07
			]
		},
		{
			"children":[
				1
			],
			"name":"neck",
			"rotation":[
				-1.951541506173271e-08,
				0,
				0,
				1
			],
			"translation":[
				0,
				2.0000007152557373,
				2.638767000462394e-07
			]
		},
		{
			"name":"arm_left_hand_end",
			"rotation":[
				5.029142258194952e-08,
				1.7136336794010276e-07,
				-3.4458935260772705e-08,
				1
			],
			"scale":[
				0.9999999403953552,
				1,
				0.9999999403953552
			],
			"translation":[
				-8.344650268554688e-07,
				2.1004209518432617,
				5.960464477539062e-07
			]
		},
		{
			"children":[
				3
			],
			"name":"arm_left_hand",
			"rotation":[
				-4.470348358154297e-08,
				-1.601874828338623e-07,
				-1.3364478945732117e-07,
				1
			],
			"translation":[
				-2.980232238769531e-07,
				4.200840473175049,
				7.152557373046875e-07
			]
		},
		{
			"children":[
				4
			],
			"name":"arm_left_bot",
			"rotation":[
				-0.03490421548485756,
				-0.1585768759250641,
				0.18324890732765198,
				0.9695642590522766
			],
			"scale":[
				0.9999999403953552,
				0.9999998807907104,
				1
			],
			"translation":[
				1.4156103134155273e-06,
				7.163934707641602,
				1.1920928955078125e-07
			]
		},
		{
			"children":[
				5
			],
			"name":"arm_left_top",
			"rotation":[
				-0.014439154416322708,
				-0.07414800673723221,
				-0.06937681138515472,
				0.9947263598442078
			],
			"scale":[
				0.9999998807907104,
				0.9999998211860657,
				1
			],
			"translation":[
				7.748603820800781e-07,
				1.299586296081543,
				8.940696716308594e-08
			]
		},
		{
			"children":[
				6
			],
			"name":"shoulder_left",
			"rotation":[
				0.08735211193561554,
				-3.883343069333023e-08,
				-0.9592998027801514,
				0.26853951811790466
			],
			"scale":[
				0.999998927116394,
				0.9999998807907104,
				1
			],
			"translation":[
				17.370342254638672,
				2.463242292404175,
				-1.4684784412384033
			]
		},
		{
			"name":"arm_right_hand_end",
			"rotation":[
				5.960464477539063e-08,
				-1.3224780559539795e-07,
				-7.450580596923828e-09,
				1
			],
			"scale":[
				1,
				1,
				0.9999998807907104
			],
			"translation":[
				7.748603820800781e-07,
				2.1004207134246826,
				-7.152557373046875e-07
			]
		},
		{
			"children":[
				8
			],
			"name":"arm_right_hand",
			"rotation":[
				9.313226634333205e-09,
				-6.891787052154541e-08,
				4.190951585769653e-09,
				1
			],
			"scale":[
				1,
				1,
				0.9999999403953552
			],
			"translation":[
				2.384185791015625e-07,
				4.2008376121521,
				1.1920928955078125e-07
			]
		},
		{
			"children":[
				9
			],
			"name":"arm_right_bot",
			"rotation":[
				-0.034904319792985916,
				0.15857723355293274,
				-0.18324865400791168,
				0.9695642590522766
			],
			"scale":[
				0.9999998807907104,
				0.9999998807907104,
				1
			],
			"translation":[
				-1.4826655387878418e-06,
				7.16393518447876,
				3.948807716369629e-07
			]
		},
		{
			"children":[
				10
			],
			"name":"arm_right_top",
			"rotation":[
				-0.014439169317483902,
				0.07414806634187698,
				0.06937621533870697,
				0.9947263598442078
			],
			"scale":[
				1,
				1.0000001192092896,
				1.0000001192092896
			],
			"translation":[
				2.384185791015625e-07,
				1.2995860576629639,
				6.258487701416016e-07
			]
		},
		{
			"children":[
				11
			],
			"name":"shoulder_right",
			"rotation":[
				0.08735237270593643,
				3.6891755428314355e-08,
				0.9592999815940857,
				0.26853904128074646
			],
			"scale":[
				0.9999992251396179,
				0.9999999403953552,
				0.9999999403953552
			],
			"translation":[
				-16.80236053466797,
				2.463242292404175,
				-1.4684784412384033
			]
		},
		{
			"children":[
				2,
				7,
				12
			],
			"name":"body_top2",
			"rotation":[
				-7.245171218528412e-08,
				0,
				0,
				1
			],
			"translation":[
				0,
				5.1848649978637695,
				-1.0355461199651472e-07
			]
		},
		{
			"children":[
				13
			],
			"name":"body_top1",
			"rotation":[
				9.196713079973051e-08,
				0,
				0,
				1
			],
			"translation":[
				0,
				6.221836566925049,
				-2.96607822747319e-08
			]
		},
		{
			"children":[
				14
			],
			"name":"body_top0",
			"rotation":[
				-4.547473508864641e-13,
				0,
				0,
				1
			],
			"translation":[
				0,
				5.184869289398193,
				-2.2541826183442026e-08
			]
		},
		{
			"name":"leg_left_foot_end",
			"rotation":[
				-1.6007106751203537e-06,
				-2.3227185010910034e-06,
				-2.764281816780567e-07,
				1
			],
			"translation":[
				7.748603820800781e-07,
				0.8716682195663452,
				-3.5762786865234375e-07
			]
		},
		{
			"children":[
				16
			],
			"name":"leg_left_foot",
			"rotation":[
				2.009328454732895e-06,
				2.8703361749649048e-06,
				7.76955857872963e-07,
				1
			],
			"translation":[
				1.4901161193847656e-06,
				3.1893770694732666,
				-5.364418029785156e-07
			]
		},
		{
			"children":[
				17
			],
			"name":"leg_left_bot",
			"rotation":[
				-0.12124594300985336,
				-0.17454710602760315,
				-0.006768773775547743,
				0.9771320223808289
			],
			"scale":[
				0.9999999403953552,
				1,
				1
			],
			"translation":[
				4.76837158203125e-07,
				3.012974500656128,
				-2.384185791015625e-07
			]
		},
		{
			"children":[
				18
			],
			"name":"leg_left_top",
			"rotation":[
				0.24978001415729523,
				0,
				-0.7906996011734009,
				0.5589312314987183
			],
			"scale":[
				0.9999999403953552,
				1,
				1
			],
			"translation":[
				6.2625837326049805,
				-5.878355979919434,
				6.614445686340332
			]
		},
		{
			"name":"leg_right_foot_end",
			"rotation":[
				-1.2628732974917511e-06,
				-1.9138677487262612e-07,
				-5.867331864806147e-08,
				1
			],
			"scale":[
				1,
				1.0000001192092896,
				1.0000001192092896
			],
			"translation":[
				2.3096799850463867e-07,
				2.9850964546203613,
				-2.1457672119140625e-06
			]
		},
		{
			"children":[
				20
			],
			"name":"leg_right_foot",
			"rotation":[
				1.4761462807655334e-06,
				1.695007085800171e-07,
				-2.7939677238464355e-09,
				1
			],
			"translation":[
				5.364418029785156e-07,
				6.277356147766113,
				-3.337860107421875e-06
			]
		},
		{
			"children":[
				21
			],
			"name":"leg_right_bot",
			"rotation":[
				-0.6016677618026733,
				-0.5750916004180908,
				0.38594040274620056,
				0.3978888988494873
			],
			"scale":[
				1,
				1.0000001192092896,
				1.0000001192092896
			],
			"translation":[
				-2.9206275939941406e-06,
				8.92880916595459,
				-1.5497207641601562e-06
			]
		},
		{
			"children":[
				22
			],
			"name":"leg_right_top",
			"rotation":[
				0.1588464230298996,
				5.078557130389072e-09,
				-0.7335332036018372,
				0.6608304381370544
			],
			"scale":[
				0.9999999403953552,
				0.9999999403953552,
				1
			],
			"translation":[
				-15.799090385437012,
				-5.878355503082275,
				2.6835556030273438
			]
		},
		{
			"children":[
				15,
				19,
				23
			],
			"name":"body",
			"rotation":[
				-4.76267223348259e-06,
				0,
				0,
				1
			],
			"translation":[
				0,
				9.761669158935547,
				-9.337649680674076e-05
			]
		},
		{
			"children":[
				24
			],
			"name":"root",
			"rotation":[
				-0.7071033716201782,
				0,
				0,
				0.7071101665496826
			],
			"translation":[
				-0.2839917838573456,
				5.410195350646973,
				34.19304275512695
			]
		},
		{
			"mesh":0,
			"name":"model",
			"skin":0
		},
		{
			"children":[
				26,
				25
			],
			"name":"rig",
			"rotation":[
				0.7071068286895752,
				0,
				0,
				0.7071068286895752
			]
		}
	],
	"materials":[
		{
			"doubleSided":true,
			"name":"tripo_material_65d1198d-3cf5-447b-a22e-79cbda428d20.001",
			"normalTexture":{
				"index":0
			},
			"pbrMetallicRoughness":{
				"baseColorTexture":{
					"index":1
				},
				"metallicFactor":0,
				"roughnessFactor":0.5
			}
		}
	],
	"meshes":[
		{
			"name":"model",
			"primitives":[
				{
					"attributes":{
						"POSITION":0,
						"NORMAL":1,
						"TEXCOORD_0":2,
						"JOINTS_0":3,
						"WEIGHTS_0":4
					},
					"indices":5,
					"material":0
				}
			]
		}
	],
	"textures":[
		{
			"sampler":0,
			"source":0
		},
		{
			"sampler":0,
			"source":1
		}
	],
	"images":[
		{
			"bufferView":6,
			"mimeType":"image/jpeg",
			"name":"NormalGL_65d1198d-3cf5-447b-a22e-79cbda428d20"
		},
		{
			"bufferView":7,
			"mimeType":"image/jpeg",
			"name":"Color_65d1198d-3cf5-447b-a22e-79cbda428d20"
		}
	],
	"skins":[
		{
			"inverseBindMatrices":6,
			"joints":[
				25,
				24,
				15,
				14,
				13,
				2,
				1,
				0,
				7,
				6,
				5,
				4,
				3,
				12,
				11,
				10,
				9,
				8,
				19,
				18,
				17,
				16,
				23,
				22,
				21,
				20
			],
			"name":"rig"
		}
	],
	"accessors":[
		{
			"bufferView":0,
			"componentType":5126,
			"count":12379,
			"max":[
				25.280826568603516,
				34.1545295715332,
				26.32599639892578
			],
			"min":[
				-26.753931045532227,
				-34.19304275512695,
				-25.069353103637695
			],
			"type":"VEC3"
		},
		{
			"bufferView":1,
			"componentType":5126,
			"count":12379,
			"type":"VEC3"
		},
		{
			"bufferView":2,
			"componentType":5126,
			"count":12379,
			"type":"VEC2"
		},
		{
			"bufferView":3,
			"componentType":5121,
			"count":12379,
			"type":"VEC4"
		},
		{
			"bufferView":4,
			"componentType":5126,
			"count":12379,
			"type":"VEC4"
		},
		{
			"bufferView":5,
			"componentType":5123,
			"count":59544,
			"type":"SCALAR"
		},
		{
			"bufferView":8,
			"componentType":5126,
			"count":26,
			"type":"MAT4"
		}
	],
	"bufferViews":[
		{
			"buffer":0,
			"byteLength":148548,
			"byteOffset":0,
			"target":34962
		},
		{
			"buffer":0,
			"byteLength":148548,
			"byteOffset":148548,
			"target":34962
		},
		{
			"buffer":0,
			"byteLength":99032,
			"byteOffset":297096,
			"target":34962
		},
		{
			"buffer":0,
			"byteLength":49516,
			"byteOffset":396128,
			"target":34962
		},
		{
			"buffer":0,
			"byteLength":198064,
			"byteOffset":445644,
			"target":34962
		},
		{
			"buffer":0,
			"byteLength":119088,
			"byteOffset":643708,
			"target":34963
		},
		{
			"buffer":0,
			"byteLength":432940,
			"byteOffset":762796
		},
		{
			"buffer":0,
			"byteLength":547334,
			"byteOffset":1195736
		},
		{
			"buffer":0,
			"byteLength":1664,
			"byteOffset":1743072
		}
	],
	"samplers":[
		{
			"magFilter":9729,
			"minFilter":9987
		}
	],
	"buffers":[
		{
			"byteLength":1744736,
			"uri":"data:application/octet-stream;base64,"
		}
	]
}
